<?xml version="1.0" standalone="no"?>
<!DOCTYPE svg PUBLIC "-//W3C//DTD SVG 20010904//EN"
 "http://www.w3.org/TR/2001/REC-SVG-20010904/DTD/svg10.dtd">
<svg version="1.0" xmlns="http://www.w3.org/2000/svg"
 width="550.000000pt" height="550.000000pt" viewBox="0 0 550.000000 550.000000"
 preserveAspectRatio="xMidYMid meet">
<metadata>
Created by potrace 1.11, written by Peter Selinger 2001-2013
</metadata>
<g transform="translate(0.000000,550.000000) scale(0.100000,-0.100000)"
fill="#000000" stroke="none">
<path d="M2752 5374 c10 -10 20 -15 24 -12 3 4 -5 12 -18 18 -22 12 -22 12 -6
-6z"/>
<path d="M2804 5337 l6 -27 -60 7 c-42 4 -60 2 -60 -6 0 -6 -7 -11 -16 -11
-10 0 -14 -6 -11 -14 5 -11 0 -13 -25 -5 -17 4 -35 6 -39 3 -5 -3 -9 0 -9 5 0
6 -4 11 -10 11 -5 0 -10 -7 -10 -15 0 -8 -5 -15 -11 -15 -12 0 -47 -32 -39
-36 3 -1 2 -6 -2 -10 -5 -4 -8 0 -8 9 0 13 -9 17 -32 17 -27 -1 -30 -2 -15
-11 21 -12 22 -29 2 -29 -7 0 -18 -7 -23 -15 -11 -21 -106 -32 -126 -16 -16
13 -36 7 -36 -11 0 -5 7 -8 15 -4 8 3 15 1 15 -4 0 -6 16 -10 35 -10 19 0 34
-3 34 -7 -4 -27 4 -32 49 -29 55 3 82 -2 82 -16 0 -7 -14 -8 -36 -5 -30 5 -34
4 -24 -8 10 -12 8 -15 -11 -16 -13 -1 -28 0 -34 1 -5 1 -20 3 -32 4 -23 1 -27
8 -23 35 1 9 -4 12 -15 7 -9 -3 -21 -6 -26 -6 -17 0 -9 -19 12 -25 11 -4 18
-9 15 -13 -8 -8 -107 -12 -128 -6 -27 8 -22 27 5 21 12 -4 29 -2 37 3 12 8 9
10 -11 10 -15 0 -39 6 -54 14 l-28 15 26 6 c33 9 34 19 3 33 -25 11 -95 -6
-126 -32 -20 -16 -59 -33 -93 -40 -15 -4 -36 -15 -47 -26 -10 -10 -37 -28 -58
-39 -47 -24 -222 -170 -222 -185 0 -6 -10 -22 -21 -36 -35 -43 -72 -102 -107
-170 -18 -36 -44 -76 -57 -90 -32 -33 -57 -96 -85 -208 -14 -57 -26 -88 -31
-80 -6 9 -11 10 -19 2 -13 -13 -2 -67 11 -58 13 8 11 -23 -6 -86 -8 -30 -15
-70 -15 -89 0 -43 -19 -111 -38 -133 -7 -9 -39 -28 -70 -43 -31 -15 -89 -47
-129 -71 -40 -24 -76 -44 -80 -44 -4 0 -23 -11 -42 -24 -20 -14 -47 -27 -61
-29 -63 -10 -130 -44 -130 -65 0 -36 -68 -74 -94 -52 -18 14 -72 -15 -139 -76
-27 -24 -53 -44 -58 -44 -16 0 -10 -18 16 -46 25 -27 55 -27 55 0 0 19 39 39
106 56 40 10 61 11 97 2 25 -7 61 -12 79 -12 19 0 44 -7 57 -16 22 -16 23 -16
16 5 -9 29 11 51 45 51 37 0 52 -21 57 -77 4 -58 -12 -103 -38 -103 -22 0 -25
-22 -6 -42 19 -20 40 -76 34 -92 -3 -7 -1 -33 4 -56 7 -31 7 -45 -2 -50 -7 -5
-8 -10 -1 -14 6 -3 9 -52 8 -117 -1 -98 -3 -112 -21 -125 -19 -14 -20 -26 -20
-202 0 -123 5 -199 13 -221 11 -31 10 -36 -8 -53 -26 -25 -25 -36 5 -50 27
-12 31 -28 14 -61 -9 -16 -9 -22 0 -25 24 -8 9 -20 -39 -32 -58 -14 -70 -9
-70 30 0 24 -5 31 -27 36 -41 10 -45 14 -32 30 6 8 24 14 40 14 24 0 29 4 29
25 0 14 -3 25 -7 26 -5 1 -66 4 -138 8 -145 7 -154 4 -155 -56 0 -24 -7 -36
-32 -52 -20 -12 -27 -21 -17 -21 9 0 39 -10 68 -21 50 -21 66 -39 35 -39 -8 0
-12 -5 -9 -10 4 -6 63 -9 156 -7 82 1 149 0 149 -4 0 -3 12 -4 26 -1 18 3 30
0 36 -12 17 -31 61 -44 158 -47 91 -2 114 1 152 22 25 13 31 12 71 -15 19 -13
49 -27 66 -31 17 -4 37 -14 43 -24 7 -10 21 -20 30 -24 10 -3 15 -12 12 -20
-7 -20 68 -30 79 -10 6 9 19 12 41 8 29 -6 34 -4 43 22 22 60 33 100 33 116 0
9 16 50 35 91 l35 75 -24 66 c-13 37 -27 69 -30 72 -3 3 -24 -2 -46 -12 -32
-15 -42 -15 -55 -5 -8 7 -15 18 -15 26 0 7 -8 15 -19 19 -12 3 -18 15 -18 33
0 44 -53 234 -79 281 -13 24 -24 55 -24 69 0 43 -72 252 -86 252 -8 0 -14 7
-14 15 0 8 5 15 10 15 6 0 10 16 8 35 -2 40 2 47 22 35 10 -6 11 -12 3 -22 -8
-9 -6 -25 7 -58 20 -51 33 -59 47 -28 9 22 10 21 28 -10 23 -39 45 -42 45 -6
0 38 23 24 32 -20 7 -34 5 -40 -17 -58 -34 -27 -47 -53 -39 -83 5 -21 12 -25
46 -25 37 0 40 -3 57 -42 33 -76 34 -86 11 -90 -20 -3 -20 -4 4 -28 14 -14 32
-31 40 -38 8 -6 21 -39 27 -71 7 -33 16 -58 20 -56 6 4 11 126 11 245 -1 25
-6 96 -13 158 -10 104 -10 114 6 132 15 16 16 25 8 43 -18 38 -3 49 41 34 37
-13 89 -50 179 -128 38 -33 100 -71 152 -92 17 -7 16 -5 -5 18 -27 29 -15 32
36 8 35 -17 36 -17 50 2 19 25 18 45 -2 45 -8 0 -31 18 -51 39 -22 25 -47 41
-69 46 -35 6 -139 58 -161 81 -7 7 -18 14 -25 17 -19 7 5 30 34 33 13 1 36 6
51 10 23 5 34 1 56 -20 32 -30 41 -26 41 20 0 45 15 81 39 94 43 22 194 41
371 45 174 4 181 4 126 -9 -33 -8 -65 -12 -72 -9 -6 2 -18 -3 -27 -11 -26 -26
-101 -42 -132 -28 -42 19 -66 14 -121 -24 -80 -54 -99 -135 -36 -150 15 -4 41
-15 59 -25 17 -10 48 -21 67 -25 20 -3 36 -10 36 -14 0 -5 15 -12 33 -15 17
-4 44 -14 59 -21 38 -20 103 -8 142 26 17 14 45 32 63 39 22 9 34 22 38 42 4
16 10 29 14 29 12 0 67 133 63 151 -1 10 -13 20 -25 24 -19 6 -20 8 -4 12 10
2 32 0 49 -6 17 -6 46 -11 65 -11 26 0 36 -6 45 -25 14 -31 25 -32 40 -1 16
38 4 54 -46 61 -52 8 -56 16 -22 50 13 13 21 27 17 30 -3 4 2 13 12 20 10 7
24 35 31 62 l13 48 3 -55 c4 -103 3 -100 30 -101 14 0 19 -3 13 -6 -21 -8 -15
-40 10 -47 12 -3 46 -6 75 -6 34 0 51 -4 47 -10 -11 -19 16 -40 51 -40 37 0
39 -4 49 -98 4 -35 10 -61 13 -58 7 8 33 -44 26 -55 -3 -5 -12 -9 -20 -9 -8 0
-14 -6 -14 -12 -1 -20 -40 32 -40 52 0 21 -34 131 -51 161 -10 19 -17 21 -60
16 -68 -8 -72 -12 -65 -62 7 -42 7 -43 -29 -49 -40 -8 -42 -12 -16 -34 17 -14
19 -25 14 -64 -6 -50 -22 -56 -24 -10 -1 32 -27 105 -28 80 -1 -10 -10 -27
-22 -39 -18 -18 -20 -28 -14 -72 12 -95 27 -113 46 -57 12 34 29 40 29 9 0
-30 15 -15 30 30 12 39 30 55 30 29 0 -6 6 -19 13 -27 7 -9 20 -36 27 -61 12
-38 41 -88 95 -165 12 -19 -7 -92 -37 -137 -26 -40 -74 -64 -94 -47 -7 6 -15
6 -18 1 -7 -12 -59 -2 -68 13 -5 8 -23 11 -48 9 -37 -3 -69 -23 -120 -77 -17
-17 -18 -17 -39 16 -11 19 -21 45 -21 58 0 34 35 87 70 107 18 10 34 31 41 52
6 19 17 42 23 50 15 20 36 58 36 66 0 3 -8 3 -17 1 -10 -3 -30 -8 -45 -11 -16
-4 -28 -12 -28 -20 0 -7 -25 -23 -55 -34 -31 -12 -76 -35 -100 -52 -35 -24
-44 -36 -43 -59 1 -23 9 -33 37 -48 46 -23 47 -24 49 -81 1 -26 5 -58 8 -72 7
-34 79 -90 114 -90 42 0 97 27 103 50 5 19 8 20 29 9 13 -7 30 -15 38 -19 10
-5 16 -25 18 -64 3 -56 3 -56 25 -41 27 19 55 19 97 1 28 -11 29 -14 14 -20
-18 -7 -18 -8 -2 -20 10 -7 14 -21 11 -37 -6 -31 -63 -48 -168 -52 -60 -2 -83
-9 -168 -51 -87 -42 -102 -46 -128 -37 -16 5 -37 17 -45 26 -22 22 -61 19 -69
-5 -3 -11 -10 -20 -14 -20 -11 0 -11 -149 0 -156 5 -3 27 0 50 6 34 9 47 8 75
-5 19 -9 34 -22 34 -30 0 -8 9 -19 20 -25 11 -6 20 -17 20 -25 0 -7 17 -26 38
-41 39 -28 72 -74 72 -100 0 -8 7 -14 15 -14 11 0 13 -10 8 -52 -10 -82 -9
-93 6 -90 10 2 12 -5 9 -23 -4 -19 -2 -23 7 -15 8 7 11 4 10 -10 -2 -26 -4
-28 -45 -32 -41 -5 -104 -31 -114 -47 -20 -32 -136 1 -255 71 -34 21 -66 38
-70 38 -4 0 -32 17 -62 38 -73 50 -108 66 -149 68 -19 0 -45 4 -57 8 -23 7
-33 -7 -13 -19 6 -3 10 -15 10 -25 0 -13 9 -22 25 -26 21 -5 24 -11 22 -45 -2
-46 -18 -55 -60 -34 -16 8 -38 15 -47 15 -16 0 -31 11 -97 72 -13 11 -23 16
-23 11 0 -19 125 -144 219 -220 53 -43 98 -80 101 -83 3 -3 39 -29 80 -58 41
-29 122 -86 180 -127 127 -90 195 -124 275 -136 33 -6 61 -14 63 -18 2 -5 26
4 55 19 29 15 67 31 85 35 17 4 32 12 32 19 0 7 12 23 26 37 14 13 32 39 40
57 17 42 44 193 44 252 0 65 18 120 52 159 16 18 34 44 40 57 6 13 15 24 19
24 15 0 78 -97 147 -225 38 -71 90 -167 116 -213 26 -46 58 -114 73 -150 28
-72 62 -125 101 -158 23 -19 24 -22 11 -57 -14 -40 -5 -62 15 -34 17 23 26 22
26 -4 0 -11 4 -18 9 -15 12 8 45 -31 71 -84 13 -25 28 -48 35 -52 22 -13 103
-143 155 -250 29 -60 57 -108 63 -108 5 0 29 12 53 27 43 27 44 29 39 73 -2
25 -7 83 -10 130 -8 105 -39 259 -86 417 -20 68 -114 289 -134 313 -7 8 -15
23 -18 33 -4 9 -11 17 -16 17 -5 0 -26 24 -47 52 -47 65 -225 249 -271 280
-39 27 -42 52 -9 100 l24 35 -33 16 c-34 16 -93 107 -98 150 -2 19 3 22 33 25
93 7 132 13 169 26 37 12 42 12 51 -3 8 -14 9 -14 10 2 0 16 52 70 88 91 13 7
14 3 8 -25 -4 -19 -8 -39 -10 -45 -1 -7 -8 -19 -15 -28 -9 -11 -12 -33 -9 -68
4 -42 11 -56 34 -75 46 -38 100 -63 137 -63 40 0 161 -76 227 -144 52 -55 50
-67 -23 -106 -26 -14 -47 -28 -47 -31 0 -4 24 -43 54 -88 30 -45 57 -94 60
-109 9 -42 43 -255 61 -382 14 -98 86 -384 100 -398 10 -11 267 226 344 318
38 45 38 46 30 104 -14 108 40 283 110 353 15 16 43 55 61 88 18 33 36 65 40
70 4 6 15 33 26 60 21 58 53 104 73 104 10 1 11 -2 3 -12 -8 -9 -7 -20 2 -39
12 -23 12 -27 -1 -32 -8 -3 -18 -4 -23 -1 -4 3 -13 -9 -19 -25 -5 -17 -27 -52
-48 -78 -85 -105 -84 -131 6 -177 33 -17 35 -17 48 1 24 33 154 293 180 362
48 125 30 215 -29 147 -12 -14 -27 -25 -34 -25 -6 0 -17 -13 -24 -30 -7 -16
-16 -30 -21 -30 -18 0 -18 21 2 67 44 101 82 209 81 230 -2 25 17 33 66 29 21
-1 32 2 32 11 0 8 -12 13 -28 13 -26 0 -27 2 -24 45 4 43 22 60 37 35 3 -5 26
-10 49 -10 41 0 44 2 50 31 13 67 0 164 -24 179 -6 4 -15 34 -21 68 -8 45 -14
59 -25 55 -17 -6 -18 12 -5 105 6 37 12 100 14 140 4 58 2 72 -10 72 -8 0 -17
-9 -20 -20 -7 -28 -15 -25 -38 13 -37 61 -31 85 38 151 34 33 62 64 62 69 0 5
13 19 29 32 l30 24 -12 78 c-35 224 -122 515 -213 712 -53 117 -55 119 -124
164 -61 39 -79 74 -80 152 0 56 -4 66 -48 128 -193 271 -439 510 -708 690
-168 112 -296 177 -347 177 -23 0 -44 5 -47 10 -7 12 -162 7 -173 -6 -4 -4 1
-4 11 -1 11 4 16 3 12 -3 -3 -6 -19 -10 -36 -10 -22 0 -29 -5 -29 -20 0 -11
-7 -20 -16 -20 -8 0 -12 5 -9 10 3 6 4 10 0 10 -3 0 -14 -4 -25 -10 -11 -5
-28 -14 -39 -19 -13 -7 -23 -5 -36 7 -16 16 -17 16 -11 -4 8 -27 -16 -48 -44
-39 -13 4 -20 15 -20 31 0 21 3 24 25 18 18 -5 25 -2 25 9 0 17 44 45 113 71
26 10 47 22 47 27 0 5 8 9 18 9 9 0 26 7 36 15 16 12 16 15 4 20 -12 5 -175
-78 -188 -96 -8 -11 -83 -41 -111 -45 -19 -3 -29 3 -41 24 -28 46 -129 155
-136 147 -3 -3 5 -16 18 -30 29 -30 19 -46 -12 -19 -13 10 -17 12 -10 4 14
-17 16 -54 2 -45 -13 8 -13 0 5 -65 8 -30 13 -55 12 -57 -8 -8 -52 26 -56 42
-4 24 -41 78 -48 71 -3 -3 4 -21 15 -40 l20 -34 -34 3 c-19 1 -34 -2 -34 -6 0
-12 -30 0 -68 28 -18 13 -30 29 -26 35 3 5 -8 23 -25 39 -37 33 -41 35 -41 14
0 -19 -18 -19 -39 -2 -9 8 -32 20 -51 27 -19 7 -44 21 -55 30 -40 34 -48 35
-41 7z m552 -164 c3 -13 13 -23 22 -23 12 0 11 -4 -6 -16 -19 -13 -26 -13 -38
-3 -26 21 -36 49 -28 81 l6 31 19 -24 c11 -13 22 -34 25 -46z m-866 -4 c-38
-11 -66 -10 -54 0 12 12 46 18 64 12 11 -4 8 -7 -10 -12z m-73 -15 c-3 -3 -12
-4 -19 -1 -8 3 -5 6 6 6 11 1 17 -2 13 -5z m1209 -24 c7 -7 19 -8 36 -1 15 5
39 6 55 2 23 -6 28 -13 28 -39 0 -23 3 -28 12 -20 10 8 13 6 13 -7 0 -18 -37
-54 -57 -55 -17 0 -16 12 0 34 18 24 10 64 -14 71 -21 7 -68 -23 -69 -42 0
-18 -41 -63 -57 -63 -7 0 -13 -4 -13 -10 0 -5 -10 -10 -22 -10 -22 0 -22 1 5
25 15 14 27 30 27 34 0 5 10 11 23 15 16 4 19 8 9 14 -9 6 -11 18 -6 35 7 29
14 33 30 17z m-926 -60 c0 -5 -5 -10 -11 -10 -8 0 -8 -4 0 -14 10 -12 4 -16
-36 -21 -26 -4 -66 -11 -88 -15 -49 -11 -55 -6 -18 12 15 8 27 20 26 26 -2 7
8 12 25 11 24 0 25 -1 7 -9 -18 -8 -18 -9 -2 -9 10 -1 20 6 23 14 4 8 10 12
15 9 5 -3 17 0 26 5 23 13 33 14 33 1z m-150 -10 c13 -8 13 -10 -2 -10 -9 0
-20 5 -23 10 -8 13 5 13 25 0z m-215 -20 c-3 -5 -13 -10 -21 -10 -8 0 -14 5
-14 10 0 6 9 10 21 10 11 0 17 -4 14 -10z m415 0 c0 -5 -4 -10 -10 -10 -5 0
-10 5 -10 10 0 6 5 10 10 10 6 0 10 -4 10 -10z m930 -21 c0 -17 -4 -28 -10
-24 -5 3 -10 17 -10 31 0 13 5 24 10 24 6 0 10 -14 10 -31z m-1068 -36 c-6 -3
-9 -10 -6 -16 4 -7 1 -7 -7 1 -12 11 -12 14 1 22 8 5 17 6 20 3 3 -3 -1 -8 -8
-10z m1038 2 c0 -8 -7 -15 -15 -15 -26 0 -18 20 13 29 1 1 2 -6 2 -14z m-1110
1 c0 -11 -19 -15 -25 -6 -3 5 1 10 9 10 9 0 16 -2 16 -4z m290 -5 c0 -12 -20
-25 -27 -18 -7 7 6 27 18 27 5 0 9 -4 9 -9z m-159 -12 c-16 -6 -28 -6 -35 1
-7 7 1 10 25 9 32 0 33 -1 10 -10z m1069 -25 c0 -21 -3 -24 -26 -18 -16 4 -25
3 -21 -3 3 -5 2 -15 -4 -23 -7 -12 -9 -10 -9 7 0 25 38 75 52 67 4 -3 8 -16 8
-30z m-980 6 c-8 -5 -22 -10 -30 -10 -13 0 -13 1 0 10 8 5 22 10 30 10 13 0
13 -1 0 -10z m-60 -10 c0 -5 -7 -10 -16 -10 -8 0 -12 5 -9 10 3 6 10 10 16 10
5 0 9 -4 9 -10z m-50 -10 c0 -5 9 -10 19 -10 11 0 23 -4 26 -10 4 -6 -5 -10
-19 -10 -14 0 -26 5 -26 10 0 6 -7 10 -15 10 -8 0 -15 -3 -15 -8 0 -4 -18 -6
-41 -4 -22 2 -38 6 -36 8 3 4 67 18 100 23 4 1 7 -3 7 -9z m220 -20 c0 -5 -2
-10 -4 -10 -3 0 -8 5 -11 10 -3 6 -1 10 4 10 6 0 11 -4 11 -10z m-403 -16 c-3
-3 -12 -4 -19 -1 -8 3 -5 6 6 6 11 1 17 -2 13 -5z m1343 -12 c0 -17 -25 -62
-37 -67 -8 -3 -13 5 -13 20 0 16 6 25 15 25 8 0 14 3 14 8 -3 14 1 22 11 22 6
0 10 -4 10 -8z m-1210 -22 c0 -5 -7 -10 -15 -10 -8 0 -15 5 -15 10 0 6 7 10
15 10 8 0 15 -4 15 -10z m790 -30 c0 -5 -12 -10 -26 -10 -14 0 -23 4 -19 10 3
6 15 10 26 10 10 0 19 -4 19 -10z m444 -70 c5 -47 -2 -60 -29 -60 -28 0 -43
19 -25 30 7 4 10 15 7 24 -7 19 23 60 35 48 4 -4 9 -23 12 -42z m-124 -40 c0
-5 -8 -10 -17 -10 -15 0 -16 2 -3 10 19 12 20 12 20 0z m308 -239 c3 -9 20
-29 38 -46 17 -16 39 -43 48 -60 10 -16 15 -22 12 -12 -6 20 0 21 43 6 30 -10
32 -15 27 -41 -3 -16 -13 -45 -22 -65 -14 -29 -21 -33 -41 -28 -24 6 -51 -4
-76 -29 -22 -22 -67 -32 -67 -14 0 15 -73 80 -102 91 -9 3 -24 19 -32 35 -15
28 -14 33 19 98 30 60 39 70 72 80 45 13 72 8 81 -15z m-1216 -304 c7 -8 20
-17 28 -20 8 -4 -2 -5 -22 -3 -23 3 -38 0 -41 -7 -7 -22 16 -57 42 -64 14 -3
29 -10 32 -16 5 -6 17 -6 35 0 40 14 54 6 54 -28 0 -16 4 -29 8 -29 5 0 6 -15
3 -32 -4 -32 -5 -32 -13 -8 -7 22 -7 22 -5 -7 2 -18 0 -30 -5 -27 -4 3 -8 -4
-8 -15 0 -11 -6 -26 -13 -33 -8 -7 -12 -19 -9 -26 2 -6 -1 -12 -7 -12 -7 0 -7
-8 -1 -25 20 -52 -8 -105 -56 -105 -10 0 -25 -7 -34 -15 -14 -12 -29 -13 -91
-5 -41 6 -99 13 -129 16 -63 6 -157 32 -165 45 -10 15 -148 -1 -170 -20 -11
-10 -27 -21 -35 -25 -61 -28 -96 -59 -120 -104 -19 -35 -21 -52 -15 -97 5 -45
10 -55 26 -55 10 0 24 9 31 20 7 11 22 20 34 20 12 0 32 8 45 18 13 10 40 25
59 32 19 8 40 21 46 28 8 11 20 13 40 8 16 -4 47 -11 69 -15 22 -4 54 -15 72
-24 18 -9 46 -17 63 -17 26 0 39 -16 28 -34 -2 -2 6 -14 17 -27 12 -13 14 -19
5 -14 -13 7 -13 6 -2 -7 20 -25 -28 -36 -195 -43 -82 -4 -173 -11 -203 -17
-30 -5 -86 -14 -125 -19 -137 -18 -177 -26 -184 -38 -4 -7 -12 -11 -17 -10 -5
2 -35 -3 -66 -10 -32 -7 -63 -9 -69 -5 -18 11 -4 78 22 106 69 73 99 109 99
119 0 5 11 34 24 62 61 132 70 153 69 169 -1 10 5 18 13 18 17 0 17 4 2 31
-10 17 -10 23 0 26 6 3 12 13 12 23 0 10 5 22 11 25 5 4 14 18 19 31 8 20 16
24 50 24 32 0 46 6 65 27 l23 28 59 -20 c58 -19 64 -21 116 -46 23 -11 36 -10
82 5 30 9 55 21 55 27 0 5 12 9 28 9 27 0 87 52 74 65 -3 3 1 5 9 5 8 0 27 16
42 35 41 52 125 115 152 115 13 0 30 -6 37 -13z m764 -408 c8 -14 -18 -31 -30
-19 -9 9 0 30 14 30 5 0 12 -5 16 -11z m-510 -74 c-6 -31 -10 -35 -29 -29 -29
9 -30 10 -23 31 5 16 45 43 55 36 2 -1 0 -18 -3 -38z m-72 -80 c-4 -8 -8 -15
-10 -15 -2 0 -4 7 -4 15 0 8 4 15 10 15 5 0 7 -7 4 -15z m-1785 -71 c46 -10
38 -24 -14 -24 -33 0 -45 4 -45 15 0 16 12 18 59 9z m-169 -54 c0 -5 -5 -10
-11 -10 -5 0 -7 5 -4 10 3 6 8 10 11 10 2 0 4 -4 4 -10z m2471 -24 c23 0 12
-23 -14 -29 -12 -3 -53 -8 -92 -12 l-70 -6 24 20 c13 12 31 21 42 21 10 0 21
5 24 11 4 6 19 7 38 3 18 -4 39 -8 48 -8z m41 -73 c-6 -2 -10 -8 -7 -12 2 -5
-8 -8 -23 -8 -15 0 -58 -5 -95 -12 -41 -7 -74 -8 -84 -3 -23 13 -3 22 70 30
78 9 156 12 139 5z m-345 -9 c-3 -3 -12 -4 -19 -1 -8 3 -5 6 6 6 11 1 17 -2
13 -5z m37 -29 c-7 -16 -24 -21 -24 -6 0 8 7 13 27 20 1 1 0 -6 -3 -14z
m-1345 -101 c1 -7 -23 -12 -61 -13 -35 -1 -71 -4 -80 -7 -12 -3 -18 0 -18 10
0 10 9 16 23 16 13 0 27 4 33 9 5 6 27 16 49 23 37 13 40 12 47 -7 3 -11 6
-25 7 -31z m2141 41 c0 4 7 2 15 -5 26 -21 18 -50 -15 -56 -33 -7 -39 -28 -12
-43 11 -7 12 -10 3 -11 -8 0 -11 -6 -7 -15 3 -8 1 -27 -5 -42 -5 -14 -10 -41
-11 -60 -1 -35 -14 -41 -48 -23 -13 7 -21 7 -25 0 -5 -8 -11 -8 -19 0 -11 8
-10 20 0 62 8 29 15 83 16 120 1 37 5 68 10 68 4 0 8 -9 8 -21 0 -19 3 -18 31
11 25 24 34 28 45 19 8 -6 14 -8 14 -4z m-506 -31 c25 -9 19 -38 -10 -51 -24
-11 -26 -11 -20 10 3 12 6 28 6 35 0 14 2 14 24 6z m-2146 -105 c0 -33 -4 -49
-13 -49 -7 0 -16 7 -19 16 -8 22 -8 99 1 108 15 14 32 -27 31 -75z m1029 1
c10 -11 35 -23 57 -27 30 -5 35 -8 22 -15 -32 -18 -98 2 -133 40 -39 43 -40
46 -10 67 21 15 23 14 34 -15 7 -16 21 -39 30 -50z m186 66 c5 -13 -10 -36
-24 -36 -3 0 -4 11 -1 25 5 27 17 33 25 11z m1151 -12 c3 -8 2 -12 -4 -9 -6 3
-10 10 -10 16 0 14 7 11 14 -7z m-2497 -53 c8 -24 12 -49 9 -56 -3 -8 0 -15 6
-17 6 -2 11 -22 12 -45 1 -38 2 -40 20 -31 11 6 29 19 40 29 11 11 23 19 26
19 19 0 17 -16 -5 -42 -14 -16 -25 -38 -25 -48 0 -9 -7 -23 -15 -30 -9 -8 -15
-30 -15 -57 0 -37 -3 -44 -17 -41 -14 3 -18 14 -20 48 -1 25 -2 54 -2 65 -1
15 -4 16 -13 7 -7 -7 -25 -12 -41 -12 l-29 0 3 73 c2 39 0 77 -3 83 -7 11 -8
94 -2 106 2 3 16 3 30 -1 20 -5 30 -18 41 -50z m438 49 c-28 -12 -57 -12 -50
0 3 6 21 10 38 9 27 0 29 -2 12 -9z m1435 -22 c0 -13 -4 -29 -9 -36 -6 -10
-11 -6 -19 16 -11 32 -7 42 15 42 7 0 13 -10 13 -22z m-420 -12 c0 -2 -9 -6
-20 -9 -11 -3 -20 -1 -20 4 0 5 9 9 20 9 11 0 20 -2 20 -4z m1059 -113 c1 -65
-9 -97 -23 -75 -7 11 -8 121 -2 147 2 11 5 25 6 30 5 32 19 -41 19 -102z m-49
57 c13 -8 13 -10 -2 -10 -9 0 -20 5 -23 10 -8 13 5 13 25 0z m90 -174 c0 -24
-3 -59 -7 -77 -7 -33 -7 -33 -14 -9 -9 32 -11 104 -3 124 11 28 24 6 24 -38z
m-92 37 c-10 -2 -26 -2 -35 0 -10 3 -2 5 17 5 19 0 27 -2 18 -5z m-2498 -117
c0 -11 -19 -15 -25 -6 -3 5 1 10 9 10 9 0 16 -2 16 -4z m2735 -22 c0 -5 -6 -9
-13 -9 -7 0 -17 -7 -22 -15 -7 -10 -10 -11 -10 -2 0 7 -14 12 -35 12 -23 0
-35 5 -35 14 0 10 14 13 58 12 31 -1 57 -7 57 -12z m-2538 -39 c3 -9 -1 -23
-9 -33 -9 -9 -18 -37 -21 -61 -10 -77 -59 -96 -72 -28 -8 39 4 67 43 110 29
30 50 35 59 12z m-107 -20 c0 -8 -6 -15 -14 -15 -17 0 -28 14 -19 24 12 12 33
6 33 -9z m2085 -29 c11 -7 45 -16 75 -19 81 -8 128 -33 136 -72 4 -26 0 -38
-20 -60 -26 -27 -30 -38 -27 -62 2 -12 -11 -17 -31 -14 -5 0 -8 -4 -8 -9 0 -6
-12 -9 -27 -8 -21 2 -28 -2 -34 -22 -6 -22 -7 -20 -8 13 -1 26 -6 37 -16 37
-8 0 -15 7 -15 15 0 8 -3 15 -8 15 -4 0 -15 28 -26 63 -10 34 -22 72 -27 85
-19 50 -4 66 36 38z m-2125 -13 c0 -5 -5 -15 -10 -23 -8 -12 -10 -11 -10 8 0
12 5 22 10 22 6 0 10 -3 10 -7z m2552 -37 c-2 -9 2 -15 9 -14 6 2 14 -3 17
-11 3 -11 -1 -12 -19 -8 -13 4 -30 7 -36 7 -16 0 -17 22 -1 38 16 16 34 9 30
-12z m-2614 -136 c2 -86 0 -99 -14 -93 -12 4 -15 22 -13 92 1 47 3 89 6 94 13
22 19 -3 21 -93z m2547 -79 c-7 -23 -25 -29 -25 -8 0 14 21 39 28 33 2 -3 1
-14 -3 -25z m-2553 -56 c-2 -14 -6 -25 -7 -25 -1 0 -5 11 -7 25 -3 16 -1 25 7
25 8 0 10 -9 7 -25z m4232 -123 c4 -41 2 -61 -4 -57 -6 3 -10 34 -10 67 0 76
5 72 14 -10z m-4225 -26 c14 -17 3 -76 -15 -76 -10 0 -14 13 -14 45 0 46 9 56
29 31z m1956 -116 c-3 -5 -15 -10 -26 -10 -11 0 -17 5 -14 10 3 6 15 10 26 10
11 0 17 -4 14 -10z m-328 -86 c-3 -3 -12 -4 -19 -1 -8 3 -5 6 6 6 11 1 17 -2
13 -5z m41 -23 c3 -8 -1 -12 -9 -9 -7 2 -15 10 -17 17 -3 8 1 12 9 9 7 -2 15
-10 17 -17z m1638 -703 c19 -37 13 -44 -20 -23 -27 18 -30 24 -20 49 8 20 20
12 40 -26z"/>
<path d="M2818 4043 c7 -3 16 -2 19 1 4 3 -2 6 -13 5 -11 0 -14 -3 -6 -6z"/>
<path d="M3094 5304 c3 -8 6 -18 6 -20 0 -3 5 -2 10 1 15 9 12 22 -6 29 -12 5
-15 2 -10 -10z"/>
<path d="M2340 5226 c0 -13 6 -15 28 -10 33 8 41 14 19 14 -8 0 -22 3 -31 6
-11 4 -16 1 -16 -10z"/>
<path d="M3130 5201 c0 -4 11 -13 25 -19 14 -6 25 -8 25 -3 0 4 -11 13 -25 19
-14 6 -25 8 -25 3z"/>
<path d="M720 4241 c-8 -5 -36 -13 -64 -17 -41 -5 -46 -8 -31 -17 11 -6 33
-11 50 -12 59 -4 98 -18 102 -37 3 -10 15 -19 27 -20 49 -3 73 -6 115 -12 39
-5 50 -2 100 31 67 45 97 71 89 79 -11 11 -372 16 -388 5z"/>
<path d="M575 4230 c-3 -5 -1 -10 4 -10 6 0 11 5 11 10 0 6 -2 10 -4 10 -3 0
-8 -4 -11 -10z"/>
<path d="M238 3838 c-34 -78 -90 -230 -86 -233 2 -1 48 -5 103 -8 l100 -7 17
29 c15 27 63 64 128 99 45 24 130 94 160 132 l30 37 -106 7 c-72 5 -110 4
-117 -3 -14 -14 -127 -14 -127 -1 0 6 -17 10 -38 10 -37 0 -38 -2 -64 -62z"/>
<path d="M91 3393 c-63 -269 -87 -538 -71 -800 14 -218 51 -453 71 -453 5 0 9
4 9 9 0 5 15 15 34 21 31 10 46 26 46 51 0 5 -18 9 -39 9 -28 0 -41 5 -46 18
-6 17 -20 362 -28 702 -3 128 -1 168 6 148 6 -16 15 -28 20 -28 4 0 5 -10 2
-22 -6 -17 -4 -20 9 -15 13 5 16 3 11 -12 -3 -10 -1 -29 4 -42 7 -16 10 67 8
259 -1 155 -2 282 -3 282 -1 0 -16 -57 -33 -127z"/>
<path d="M310 3431 l-45 -6 75 -12 c75 -12 92 -10 74 6 -14 14 -54 19 -104 12z"/>
<path d="M400 3344 c0 -8 5 -12 10 -9 6 4 8 11 5 16 -9 14 -15 11 -15 -7z"/>
<path d="M2931 3254 c0 -11 3 -14 6 -6 3 7 2 16 -1 19 -3 4 -6 -2 -5 -13z"/>
<path d="M2871 3175 c-13 -14 -21 -28 -18 -31 9 -10 67 26 67 41 0 23 -22 18
-49 -10z"/>
<path d="M594 2599 c-3 -6 -1 -16 5 -22 8 -8 11 -5 11 11 0 24 -5 28 -16 11z"/>
<path d="M696 2484 c-14 -37 -7 -54 23 -54 21 0 30 -6 34 -22 l6 -23 19 21
c28 29 42 59 34 71 -4 5 -30 13 -59 16 -41 5 -53 3 -57 -9z"/>
<path d="M5430 2458 c0 -49 5 -47 14 5 4 23 3 37 -4 37 -5 0 -10 -19 -10 -42z"/>
<path d="M600 2450 c0 -5 4 -10 9 -10 6 0 13 5 16 10 3 6 -1 10 -9 10 -9 0
-16 -4 -16 -10z"/>
<path d="M1804 2163 c-10 -51 8 -167 35 -227 24 -55 36 -58 21 -5 -13 44 -13
149 0 149 6 0 10 5 10 12 0 18 -43 108 -51 108 -5 0 -11 -17 -15 -37z"/>
<path d="M436 2131 c-16 -25 -8 -93 12 -119 21 -27 76 -114 114 -182 11 -19
26 -42 33 -50 7 -8 61 -87 120 -175 59 -88 116 -169 126 -181 11 -11 19 -24
19 -30 0 -9 -65 -55 -155 -109 -28 -16 -80 -52 -117 -79 l-67 -50 32 -44 c18
-25 73 -92 123 -151 259 -303 590 -551 949 -713 74 -33 219 -88 232 -88 10 0
1 86 -11 99 -7 9 -21 50 -31 91 -9 41 -27 102 -41 135 -49 121 -226 446 -266
489 -10 11 -18 23 -18 27 0 4 -17 26 -39 49 -21 23 -44 53 -52 68 -7 15 -28
48 -46 75 -18 26 -33 50 -33 53 0 7 -42 59 -97 121 -37 42 -132 112 -162 120
-14 3 -40 -2 -68 -16 -59 -28 -67 -27 -94 17 -52 85 -60 99 -82 142 -12 25
-30 51 -40 58 -9 7 -24 27 -33 43 -8 17 -50 72 -92 124 -97 117 -169 217 -181
249 -11 28 -27 40 -35 27z"/>
<path d="M2402 2123 c2 -10 10 -18 18 -18 8 0 16 8 18 18 2 12 -3 17 -18 17
-15 0 -20 -5 -18 -17z"/>
<path d="M2560 2020 c0 -5 5 -10 10 -10 6 0 10 5 10 10 0 6 -4 10 -10 10 -5 0
-10 -4 -10 -10z"/>
<path d="M3788 2017 c-12 -30 -10 -103 3 -90 5 5 9 32 7 59 -2 34 -5 43 -10
31z"/>
<path d="M1435 1980 c3 -5 8 -10 11 -10 2 0 4 5 4 10 0 6 -5 10 -11 10 -5 0
-7 -4 -4 -10z"/>
<path d="M1871 1875 c0 -5 6 -19 14 -29 8 -11 15 -15 15 -10 0 6 -7 19 -15 30
-8 10 -14 15 -14 9z"/>
<path d="M1439 1833 c-13 -15 -12 -15 9 -4 23 12 28 21 13 21 -5 0 -15 -7 -22
-17z"/>
<path d="M1940 1776 c0 -2 7 -9 15 -16 13 -11 14 -10 9 4 -5 14 -24 23 -24 12z"/>
<path d="M4125 1610 c16 -10 31 -17 34 -14 7 6 -32 33 -49 34 -8 0 -2 -9 15
-20z"/>
<path d="M3281 1440 c0 -14 4 -34 9 -45 7 -17 9 -16 9 10 0 17 -4 37 -9 45 -8
12 -10 10 -9 -10z"/>
<path d="M1701 1363 c9 -44 78 -183 90 -183 4 0 2 12 -6 28 -8 15 -29 62 -47
105 -36 87 -50 106 -37 50z"/>
<path d="M3045 1059 c-50 -39 -132 -77 -185 -85 -35 -6 -43 -3 -65 20 l-25 27
-260 -260 c-143 -143 -260 -264 -260 -270 0 -6 8 -15 19 -20 22 -12 75 22 156
101 34 32 71 56 115 73 76 29 93 31 110 10 7 -8 19 -15 27 -15 8 0 53 -39 99
-86 97 -99 95 -90 64 -265 -11 -63 -23 -151 -26 -196 l-7 -83 49 0 c55 0 202
15 314 31 l75 11 -9 85 c-6 57 -12 80 -17 67 -6 -16 -8 -14 -8 9 -1 16 -6 38
-13 50 -6 12 -12 62 -14 112 -1 49 -6 106 -11 125 -7 26 -5 47 8 82 9 26 20
67 24 90 7 38 6 41 -8 29 -14 -11 -17 -9 -23 13 -3 15 -3 57 2 94 4 37 10 57
12 45 6 -36 20 -27 24 14 2 20 8 38 14 40 6 2 30 -10 55 -27 24 -16 53 -29 64
-29 14 0 16 2 5 6 -33 13 -68 44 -83 75 -41 87 -115 158 -162 158 -11 0 -38
-14 -60 -31z"/>
<path d="M2850 1030 c0 -5 6 -10 14 -10 8 0 18 5 21 10 3 6 -3 10 -14 10 -12
0 -21 -4 -21 -10z"/>
<path d="M3202 480 c0 -14 2 -19 5 -12 2 6 2 18 0 25 -3 6 -5 1 -5 -13z"/>
<path d="M2526 85 c15 -27 32 -54 37 -60 15 -16 -29 68 -48 90 -9 11 -4 -2 11
-30z"/>
</g>
</svg>
